<?xml version="1.0" standalone="no"?>
<!DOCTYPE svg PUBLIC "-//W3C//DTD SVG 20010904//EN"
 "http://www.w3.org/TR/2001/REC-SVG-20010904/DTD/svg10.dtd">
<svg version="1.0" xmlns="http://www.w3.org/2000/svg"
 width="1024.000000pt" height="1024.000000pt" viewBox="0 0 1024.000000 1024.000000"
 preserveAspectRatio="xMidYMid meet">
<metadata>
Created by potrace 1.16, written by Peter Selinger 2001-2019
</metadata>
<g transform="translate(0.000000,1024.000000) scale(0.100000,-0.100000)"
fill="#000000" stroke="none">
<path d="M5655 9880 c3 -5 8 -10 11 -10 2 0 4 5 4 10 0 6 -5 10 -11 10 -5 0
-7 -4 -4 -10z"/>
<path d="M6510 9574 c-47 -7 -215 -18 -375 -24 -575 -21 -663 -27 -770 -54
-122 -30 -367 -114 -486 -166 -281 -124 -433 -223 -637 -414 -62 -58 -118
-106 -124 -106 -5 0 -49 36 -96 81 -116 108 -186 153 -295 188 -141 45 -278
64 -415 59 -104 -4 -131 -9 -242 -47 -69 -23 -170 -64 -225 -90 -206 -101
-499 -314 -745 -543 -271 -251 -624 -545 -925 -768 -209 -155 -274 -231 -275
-318 0 -39 11 -62 55 -117 44 -54 128 -202 164 -290 41 -98 99 -296 187 -645
98 -387 184 -602 318 -798 31 -45 56 -85 56 -90 0 -5 -30 -22 -67 -37 -159
-67 -335 -179 -419 -267 -169 -176 -293 -460 -294 -669 0 -76 39 -208 101
-337 77 -163 213 -478 285 -660 151 -386 340 -680 679 -1060 165 -185 292
-306 470 -447 213 -168 255 -207 352 -320 145 -169 199 -272 249 -481 41 -172
51 -193 114 -255 119 -118 246 -132 555 -61 328 75 530 101 1100 142 160 12
349 27 420 35 72 7 240 25 375 39 317 33 364 40 617 87 425 79 726 188 1163
423 325 175 784 522 984 744 280 310 509 694 676 1132 26 69 97 229 157 355
133 277 176 384 202 496 47 203 34 350 -43 504 -26 50 -46 104 -46 120 0 49
59 179 165 365 55 96 110 202 123 234 33 80 27 142 -17 194 -178 209 -318 524
-506 1136 -72 234 -94 263 -335 446 -85 65 -229 186 -320 270 -280 257 -393
330 -566 365 -49 10 -94 23 -100 29 -12 12 -39 90 -103 306 -65 221 -129 385
-180 460 -25 38 -118 158 -206 267 -89 109 -198 251 -244 316 -161 228 -237
288 -360 286 -37 -1 -104 -8 -151 -15z m197 -135 c46 -17 71 -46 179 -209 122
-183 166 -241 322 -418 64 -73 134 -161 155 -194 82 -136 267 -796 354 -1266
35 -190 39 -475 10 -610 -47 -211 -145 -410 -365 -739 -43 -65 -125 -194 -182
-288 -142 -235 -200 -315 -304 -423 -98 -101 -315 -278 -404 -330 -31 -17 -93
-44 -137 -59 -80 -28 -80 -28 -500 -29 -233 0 -471 -6 -535 -12 -275 -28 -453
-10 -667 67 -342 122 -453 166 -450 175 8 24 275 84 467 107 128 14 346 7 625
-22 238 -25 452 -21 640 11 379 65 523 159 717 470 72 114 203 284 431 559 90
108 116 146 107 155 -8 8 -15 6 -28 -10 -103 -130 -296 -354 -303 -354 -19 0
37 86 187 287 119 158 209 300 284 448 53 105 120 283 120 319 0 41 -24 2 -80
-128 -94 -218 -232 -460 -315 -551 -42 -47 -38 -35 41 106 126 224 216 482
245 702 13 107 8 419 -8 424 -21 7 -26 -19 -34 -185 -15 -269 -72 -503 -187
-761 -54 -120 -131 -261 -143 -261 -4 0 1 26 11 58 158 475 183 591 184 837 1
156 -2 192 -22 270 -61 241 -130 316 -539 588 -301 200 -415 261 -558 299 -80
20 -112 23 -285 23 -213 -1 -272 -10 -450 -74 -46 -16 -86 -28 -88 -26 -7 7
135 84 206 110 70 27 86 40 59 50 -7 3 -97 -29 -202 -70 -104 -41 -193 -74
-198 -72 -23 7 242 207 415 314 124 77 224 129 301 158 43 16 65 45 35 45 -31
0 -205 -70 -323 -130 -183 -93 -316 -178 -472 -303 -74 -60 -137 -106 -140
-103 -13 13 297 294 390 353 34 21 42 43 15 43 -15 0 -161 -105 -263 -189 -49
-41 -143 -126 -207 -189 -64 -63 -121 -112 -127 -111 -34 13 220 309 362 423
159 127 366 253 537 327 87 38 98 45 84 59 -10 10 -169 -51 -313 -122 -191
-94 -413 -247 -564 -388 -42 -40 -77 -67 -77 -62 0 24 99 138 227 263 96 92
175 158 256 213 73 48 114 83 109 88 -16 16 -209 -93 -317 -179 -76 -62 -226
-220 -317 -335 -56 -71 -105 -128 -111 -128 -5 0 3 16 17 35 15 19 68 94 118
167 90 131 191 260 242 307 28 26 34 51 12 51 -18 0 -197 -185 -353 -365 -72
-82 -140 -159 -152 -169 -44 -39 -29 -6 45 100 42 60 103 148 135 195 31 47
71 100 88 117 35 35 39 52 12 52 -20 0 -107 -93 -289 -308 -57 -67 -108 -122
-114 -122 -16 0 42 94 145 236 70 95 97 140 92 152 -19 48 -312 -349 -426
-578 -33 -65 -59 -123 -59 -129 0 -6 -5 -11 -11 -11 -29 0 21 181 87 313 118
234 259 402 446 528 97 66 330 181 463 228 315 111 464 138 855 151 281 10
591 28 599 36 9 9 161 3 188 -7z m-3143 -455 c155 -30 245 -81 378 -218 38
-38 68 -76 68 -84 0 -20 -93 -222 -102 -222 -4 0 -19 27 -34 60 -46 103 -79
105 -45 3 33 -100 39 -223 11 -223 -5 0 -19 19 -31 43 -49 95 -166 247 -191
247 -17 0 -7 -33 22 -68 45 -56 89 -164 116 -281 13 -58 22 -107 20 -108 -2
-2 -27 27 -57 64 -81 105 -116 139 -222 219 -54 41 -100 74 -103 74 -18 0 7
-37 67 -95 84 -83 213 -251 223 -290 11 -45 -3 -43 -48 6 -47 52 -172 159
-186 159 -27 0 -12 -25 61 -100 44 -46 78 -85 75 -87 -7 -7 -112 44 -223 108
-118 68 -301 159 -320 159 -7 0 -13 -6 -13 -14 0 -8 39 -35 88 -61 118 -64
182 -107 182 -122 0 -7 -5 -13 -11 -13 -29 0 -305 54 -387 75 -52 14 -98 23
-103 19 -20 -12 -6 -24 49 -40 31 -9 61 -20 66 -24 4 -5 -23 -11 -60 -15 -171
-16 -371 -72 -448 -124 -54 -37 -148 -139 -180 -194 -33 -58 -177 -421 -219
-554 -34 -107 -55 -212 -60 -301 -2 -44 -2 -44 -44 15 -46 67 -66 110 -77 166
-7 38 -22 48 -33 22 -9 -26 25 -128 88 -261 55 -119 105 -272 92 -284 -3 -3
-8 0 -10 7 -22 62 -221 333 -245 333 -16 0 -7 -17 55 -112 76 -115 112 -197
172 -397 25 -84 49 -160 52 -169 3 -9 -46 58 -108 149 -136 198 -175 247 -188
234 -7 -7 10 -39 45 -90 31 -44 80 -129 109 -190 83 -169 145 -374 86 -285
-41 62 -194 260 -202 260 -23 0 -13 -26 47 -115 36 -54 91 -152 124 -219 59
-123 126 -303 116 -314 -3 -3 -7 -3 -9 -1 -2 2 -30 38 -63 79 -33 41 -77 96
-98 123 -36 45 -56 58 -56 37 0 -5 32 -58 71 -117 126 -191 168 -287 254 -583
80 -274 95 -331 85 -325 -5 3 -23 31 -41 63 -58 102 -165 254 -267 377 -126
153 -198 260 -271 405 -70 138 -110 257 -190 570 -124 488 -188 660 -346 928
-48 83 -48 83 -32 117 12 25 72 76 219 186 288 216 496 389 818 679 69 62 177
154 240 205 602 478 846 580 1224 509z m2456 -630 c83 -19 121 -39 322 -171
90 -59 224 -142 298 -183 149 -84 260 -181 298 -260 58 -122 84 -340 63 -516
-18 -144 -58 -337 -88 -424 -38 -112 -84 -198 -168 -320 -117 -168 -129 -200
-180 -480 -9 -47 -28 -110 -43 -140 -26 -55 -26 -55 -36 90 -14 210 -12 313 8
419 19 102 50 210 73 254 16 31 9 54 -12 37 -7 -6 -23 -37 -35 -70 -12 -33
-26 -60 -31 -60 -13 0 -11 19 5 76 33 114 68 296 58 306 -16 16 -27 -16 -52
-147 -12 -66 -28 -131 -34 -145 -27 -60 -11 282 20 439 6 29 4 33 -12 29 -12
-2 -20 -13 -22 -28 -6 -65 -27 -170 -33 -170 -3 0 -9 116 -12 258 -6 259 -14
333 -32 332 -5 0 -9 -22 -8 -48 11 -242 14 -532 6 -547 -7 -12 -12 46 -16 181
-4 149 -11 223 -26 294 -28 125 -28 125 -45 111 -10 -9 -12 -21 -5 -49 11 -48
12 -199 1 -187 -5 6 -16 53 -25 105 -9 52 -26 124 -37 160 -30 91 -106 250
-121 250 -14 0 -10 -19 30 -130 31 -88 85 -307 97 -395 10 -75 -9 -45 -36 55
-28 106 -90 265 -136 347 -42 76 -139 207 -187 251 -52 51 -55 22 -3 -42 24
-30 60 -83 80 -118 38 -69 108 -246 103 -261 -1 -5 -20 17 -41 49 -109 166
-240 305 -379 405 -70 50 -99 41 -42 -12 34 -32 134 -150 149 -176 16 -28 -16
-10 -76 42 -35 31 -103 84 -152 118 -49 34 -104 75 -123 91 -30 26 -63 30 -63
8 0 -5 42 -46 94 -92 130 -114 326 -331 326 -360 0 -7 -39 25 -87 71 -148 142
-316 270 -569 435 -63 40 -114 77 -114 82 0 23 421 199 540 227 156 36 373 40
510 9z m-1345 -254 c85 -29 258 -117 382 -194 215 -133 456 -336 430 -362 -3
-4 -43 10 -89 29 -46 20 -139 56 -207 81 -68 25 -130 51 -138 57 -7 7 -17 9
-21 5 -4 -4 1 -14 11 -21 36 -26 0 -23 -68 6 -99 43 -233 89 -257 89 -45 0 -6
-25 96 -60 59 -21 110 -41 113 -44 14 -13 -34 -18 -71 -8 -23 7 -68 20 -101
29 -41 12 -96 18 -176 18 -113 0 -116 -1 -191 -38 -87 -43 -159 -93 -311 -220
-59 -49 -110 -87 -113 -84 -11 10 173 191 235 232 33 22 61 46 61 53 0 16 -3
16 -58 -12 -81 -41 -167 -113 -282 -234 -61 -64 -107 -107 -103 -94 17 47 139
206 201 263 46 42 62 63 55 70 -7 7 -33 -8 -84 -53 -177 -152 -284 -280 -359
-429 -68 -134 -73 -154 -147 -586 -3 -18 -9 -33 -14 -33 -37 0 -49 468 -15
620 44 200 102 339 198 475 120 168 268 297 433 378 164 80 234 97 400 93 95
-2 134 -7 190 -26z m-1412 -99 c153 -32 318 -93 339 -125 16 -23 6 -44 -58
-131 -81 -109 -146 -241 -175 -355 -12 -47 -25 -89 -29 -93 -8 -9 -31 164 -27
197 3 31 -22 30 -34 -1 -6 -15 -13 -85 -16 -155 -3 -71 -10 -128 -14 -128 -12
0 -51 158 -61 250 -2 14 -7 23 -13 20 -6 -3 -9 -74 -8 -188 1 -101 0 -182 -2
-180 -4 4 -79 240 -91 286 -16 59 -29 31 -26 -53 3 -67 27 -205 57 -330 12
-47 -9 -18 -35 50 -63 165 -93 226 -109 223 -23 -4 -25 -72 -7 -209 32 -239
34 -228 -24 -115 -28 55 -64 119 -81 144 -36 54 -150 182 -161 182 -18 0 -5
-28 59 -124 88 -133 148 -248 184 -349 33 -94 32 -87 20 -87 -5 0 -44 59 -87
130 -102 169 -184 251 -184 182 0 -9 29 -77 65 -151 36 -74 64 -136 61 -138
-4 -4 -115 126 -210 247 -78 99 -72 94 -91 87 -14 -6 -14 -10 1 -39 9 -18 47
-78 84 -133 91 -137 139 -229 271 -525 198 -444 354 -689 567 -891 156 -149
343 -275 504 -341 43 -18 78 -36 78 -41 0 -20 -148 1 -252 36 -105 35 -298
126 -413 195 -161 96 -387 292 -519 452 -99 119 -164 217 -324 492 -154 263
-213 355 -314 491 -71 96 -82 134 -75 257 6 111 43 237 114 388 24 54 66 151
93 217 82 207 116 257 203 301 51 26 184 59 297 74 105 14 333 4 443 -19z
m4608 -227 c73 -22 165 -69 219 -113 25 -19 106 -94 180 -165 74 -71 207 -186
295 -255 269 -212 291 -242 370 -501 76 -248 233 -665 305 -810 26 -52 82
-142 124 -199 42 -57 79 -114 82 -127 9 -36 -11 -82 -103 -236 -48 -78 -260
-489 -473 -913 -367 -733 -442 -875 -532 -1008 -122 -180 -314 -348 -744 -649
-79 -56 -215 -157 -302 -226 -351 -278 -452 -347 -666 -454 -348 -175 -650
-226 -1087 -183 -85 9 -160 18 -168 20 -7 3 -135 12 -284 20 -300 17 -373 26
-495 61 -99 29 -142 49 -142 68 0 13 57 45 110 61 61 19 163 79 260 155 285
221 449 306 693 359 138 30 641 111 689 111 32 0 39 3 36 18 -3 15 -15 17
-103 14 -112 -4 -322 -26 -438 -46 -42 -7 -77 -10 -77 -6 0 28 753 160 923
160 48 0 77 14 62 29 -9 9 -228 2 -460 -14 -77 -5 -79 -4 -48 10 18 8 101 26
185 40 84 14 222 39 305 55 84 17 168 30 187 30 39 0 69 26 42 36 -9 3 -44 1
-79 -5 -34 -6 -108 -16 -165 -22 -57 -5 -154 -16 -215 -24 -61 -8 -113 -12
-115 -10 -7 7 72 36 377 135 348 114 549 187 570 206 13 11 12 14 -1 19 -9 4
-25 2 -35 -3 -21 -12 -310 -92 -327 -92 -19 1 35 27 164 78 283 114 820 368
820 388 0 8 -4 14 -8 14 -4 0 -73 -29 -152 -64 -194 -85 -568 -228 -583 -223
-7 2 17 19 53 37 168 85 452 254 713 424 65 42 141 88 169 102 36 18 47 29 40
36 -15 15 -66 -8 -347 -154 -585 -305 -750 -387 -760 -376 -2 2 33 26 78 53
45 27 165 101 267 165 102 64 226 141 275 170 186 110 274 168 426 281 86 65
160 122 163 127 13 21 -16 24 -37 4 -30 -27 -148 -102 -243 -152 -43 -24 -141
-80 -216 -126 -142 -86 -257 -148 -264 -142 -2 3 60 49 138 104 168 118 214
154 375 297 119 105 313 303 313 319 0 21 -30 1 -107 -72 -157 -149 -363 -320
-386 -320 -5 0 18 30 52 68 108 118 303 366 386 488 44 66 95 138 113 162 26
32 32 46 23 55 -13 13 -10 15 -76 -68 -142 -177 -418 -505 -422 -501 -3 2 26
53 64 113 38 59 136 230 218 378 81 149 182 323 223 388 50 80 71 122 64 129
-10 10 -97 -105 -186 -246 -20 -32 -39 -57 -41 -55 -2 2 8 45 21 94 13 50 31
136 39 193 12 82 24 121 56 185 23 45 52 97 66 115 14 18 23 36 19 39 -11 11
-36 -8 -77 -59 -23 -29 -46 -53 -51 -53 -6 0 -17 20 -25 44 -14 43 -14 44 18
90 18 25 41 53 52 62 20 16 16 39 -7 39 -7 0 -31 -16 -54 -35 -41 -36 -41 -36
-55 -13 -34 53 -32 65 27 141 31 40 69 86 86 102 16 16 30 32 30 37 0 22 -35
1 -113 -67 -47 -41 -88 -75 -92 -75 -8 0 -44 42 -45 52 0 4 36 50 80 102 46
55 75 98 70 101 -13 8 -21 2 -118 -84 -67 -58 -75 -63 -98 -53 -26 13 -30 32
-13 65 19 36 109 148 167 208 34 36 50 59 43 63 -15 10 -185 -133 -239 -200
-24 -30 -48 -52 -53 -48 -31 19 22 121 134 262 50 62 65 88 57 96 -8 8 -40
-19 -120 -102 -61 -62 -110 -108 -110 -102 0 6 9 28 20 49 23 47 184 315 212
353 24 35 14 57 -14 31 -25 -23 -127 -164 -159 -220 -28 -49 -41 -55 -34 -15
39 226 45 245 106 355 56 101 67 135 45 140 -5 1 -25 -24 -43 -55 -19 -32 -38
-58 -43 -58 -4 0 -11 38 -15 84 -7 84 -7 84 55 186 47 76 60 104 51 113 -8 8
-23 -2 -57 -41 -25 -29 -50 -52 -55 -52 -16 0 -10 88 11 142 11 29 20 61 20
71 0 27 -23 20 -45 -13 -11 -16 -23 -30 -27 -30 -3 0 -14 44 -23 98 -9 53 -21
125 -27 159 -9 54 -7 93 5 93 2 0 28 -7 58 -16z m-3190 -85 c38 -7 69 -15 69
-18 0 -3 -47 -18 -105 -33 -205 -53 -380 -146 -519 -279 -42 -39 -79 -70 -81
-67 -16 15 207 247 303 316 122 86 193 104 333 81z m542 -262 c199 -53 403
-179 467 -290 28 -46 30 -58 25 -107 -18 -178 -18 -204 4 -274 11 -37 21 -84
21 -103 0 -91 -65 -253 -156 -390 -118 -178 -292 -332 -618 -550 -279 -187
-301 -197 -684 -313 -57 -17 -106 -29 -109 -26 -3 3 61 37 143 76 152 73 422
225 551 312 169 113 461 387 552 518 137 195 201 396 201 626 0 80 -3 104 -13
104 -9 0 -18 -27 -26 -80 -15 -91 -27 -108 -36 -53 -19 120 -124 343 -162 343
-18 0 -17 -5 17 -90 44 -112 40 -122 -23 -62 -60 56 -157 108 -274 148 -67 23
-95 27 -198 27 -132 0 -190 -12 -339 -69 -67 -26 -103 -34 -151 -34 -34 0
-100 -7 -145 -16 -45 -8 -86 -14 -91 -12 -5 2 14 38 42 81 89 136 199 204 409
251 49 11 118 14 280 12 194 -3 225 -6 313 -29z m-207 -337 c113 -55 193 -159
229 -295 29 -114 13 -400 -29 -498 -13 -30 -13 -27 -9 44 6 85 -10 239 -33
315 -8 27 -35 91 -61 143 -64 126 -155 225 -258 278 -41 21 -75 42 -75 47 0 5
38 7 84 4 70 -4 96 -10 152 -38z m-393 -105 c93 -8 102 -25 14 -25 -137 0
-288 -63 -399 -168 -84 -79 -170 -191 -218 -285 -19 -37 -39 -67 -44 -67 -17
0 1 202 24 275 18 58 31 79 75 122 61 59 143 104 236 128 65 18 192 34 219 29
8 -1 50 -5 93 -9z m-775 -32 c-56 -111 -72 -186 -65 -293 13 -203 165 -442
375 -593 106 -76 264 -156 377 -191 50 -15 99 -31 110 -36 39 -17 -54 -11
-158 11 -278 56 -496 174 -722 389 -38 37 -94 84 -122 104 -58 42 -64 58 -38
120 9 20 22 85 31 144 18 132 26 162 58 216 29 49 120 136 143 136 8 0 13 -3
11 -7z m988 -189 c57 -29 82 -48 97 -75 20 -35 20 -37 3 -82 -21 -57 -121
-166 -179 -197 -40 -21 -47 -22 -76 -10 -44 18 -65 53 -71 120 -5 51 -7 55
-33 58 -67 8 24 64 114 70 71 5 102 -9 93 -44 -3 -13 -1 -31 6 -39 7 -8 9 -26
5 -44 -8 -37 8 -48 35 -21 19 19 27 66 22 139 -2 34 -45 75 -106 102 -68 30
-159 31 -241 1 -69 -26 -65 -25 -65 -12 0 14 45 41 104 62 38 14 72 18 134 15
73 -3 91 -8 158 -43z m1033 -41 c7 -16 48 -82 91 -148 161 -248 312 -545 344
-677 9 -39 -12 -36 -26 4 -33 94 -133 270 -261 460 -79 117 -151 227 -160 245
-18 33 -24 143 -9 143 5 0 14 -12 21 -27z m-1519 -145 c21 -57 37 -77 179
-218 86 -86 201 -189 256 -230 94 -70 100 -78 103 -114 6 -67 -9 -66 -119 10
-56 38 -128 90 -160 117 -33 26 -64 47 -69 47 -28 0 1 -38 105 -139 63 -61
110 -111 105 -111 -29 0 -142 64 -193 109 -32 28 -62 51 -68 51 -16 0 -10 -17
14 -33 12 -8 19 -18 15 -22 -5 -5 -25 3 -98 43 -8 5 -28 15 -44 23 -60 29
-101 162 -100 324 0 88 25 205 43 205 5 0 19 -28 31 -62z m1034 -48 c3 -23 2
-58 -4 -79 -10 -40 -66 -131 -80 -131 -5 0 4 38 20 85 16 47 32 105 36 130 8
53 19 51 28 -5z m503 -35 c20 -33 74 -123 121 -200 47 -77 105 -183 130 -235
39 -82 115 -298 136 -382 12 -50 -11 -29 -39 35 -44 101 -148 289 -162 294
-27 10 -24 -6 11 -79 56 -116 152 -414 143 -441 -2 -6 -25 32 -51 84 -85 166
-199 359 -213 359 -19 0 -16 -14 17 -80 52 -103 160 -384 160 -417 0 -31 -22
-5 -96 113 -99 157 -114 178 -125 167 -6 -6 16 -65 52 -144 89 -197 85 -177
42 -196 -35 -14 -38 -14 -51 3 -7 11 -36 53 -65 94 -29 41 -57 74 -62 73 -22
-4 -14 -32 29 -98 25 -39 46 -75 46 -81 0 -15 -50 -20 -300 -35 -176 -10 -234
-10 -415 5 -115 9 -272 16 -347 16 -75 0 -139 4 -143 9 -10 17 96 44 285 72
206 30 388 85 362 111 -6 6 -36 1 -89 -15 -87 -28 -298 -70 -316 -64 -15 5 82
41 180 67 89 24 174 62 294 131 84 48 107 69 75 69 -8 0 -66 -27 -129 -60
-101 -53 -227 -106 -227 -95 0 2 33 23 73 46 181 105 347 240 347 281 0 27
-16 22 -40 -12 -36 -50 -181 -158 -283 -211 -54 -28 -100 -49 -103 -47 -2 3
36 31 84 63 105 71 350 312 442 435 63 85 122 197 135 257 9 45 20 48 36 10
19 -47 58 -107 69 -107 19 0 9 29 -35 101 -38 62 -45 81 -45 124 0 54 9 76 23
53 4 -7 24 -40 44 -73z m-3601 -183 c170 -263 225 -353 280 -454 29 -53 71
-122 94 -153 23 -31 40 -59 37 -62 -3 -2 -29 18 -58 46 -29 28 -56 51 -61 51
-23 0 3 -37 113 -163 66 -76 119 -141 116 -143 -2 -3 -28 14 -58 36 -29 22
-57 40 -61 40 -25 0 2 -43 80 -125 85 -91 161 -199 148 -212 -3 -4 -25 11 -49
33 -87 83 -158 136 -172 130 -28 -10 -32 -4 126 -198 42 -51 95 -111 118 -133
73 -70 55 -68 -82 7 -48 26 -94 48 -102 48 -45 0 10 -60 165 -181 62 -49 89
-75 78 -77 -9 -2 -26 1 -36 7 -20 10 -164 51 -182 51 -5 0 -10 -6 -9 -12 0
-15 52 -50 219 -153 64 -38 158 -100 210 -136 204 -143 377 -201 619 -211 51
-2 75 1 78 9 3 7 -11 14 -34 18 -21 4 -120 34 -221 67 -146 48 -198 70 -256
109 -125 83 -130 108 -11 54 58 -27 81 -33 89 -24 8 8 5 15 -13 27 -13 9 -51
38 -85 65 -34 27 -69 53 -79 59 -10 5 -16 12 -14 15 3 2 67 -28 142 -67 104
-55 139 -70 148 -61 14 14 -1 27 -186 177 -65 53 -116 98 -113 101 3 3 98 -43
211 -101 113 -58 212 -106 220 -106 28 0 15 21 -31 48 -42 25 -265 185 -324
233 -14 11 25 -5 85 -35 93 -47 373 -176 382 -176 2 0 3 6 3 14 0 13 -92 71
-288 180 -57 32 -101 60 -99 63 6 6 191 -75 385 -168 143 -69 162 -76 162 -60
0 16 -46 43 -307 183 -51 27 -93 51 -93 53 0 7 106 -33 210 -80 146 -66 296
-143 424 -220 61 -36 116 -65 124 -65 29 0 2 26 -94 87 -54 35 -134 87 -177
114 -43 28 -77 52 -75 55 6 6 525 -192 564 -216 42 -24 54 -25 54 -4 0 17
-254 143 -410 204 -86 33 -129 57 -74 41 16 -5 61 -21 99 -36 115 -44 422
-141 545 -171 114 -29 118 -29 350 -25 396 7 690 6 1045 -2 365 -10 483 -2
705 43 140 29 410 144 410 175 0 19 -3 19 -48 -4 -67 -34 -210 -80 -313 -101
-118 -23 -109 -23 -109 -10 0 6 6 10 13 10 32 0 243 103 337 165 128 84 373
316 353 335 -8 9 -33 -9 -103 -74 -51 -47 -96 -86 -101 -86 -10 0 14 40 84
145 68 100 141 188 217 258 40 37 69 71 65 77 -8 13 -49 -16 -156 -112 -128
-114 -119 -94 62 149 77 102 136 190 133 195 -8 12 -111 -88 -201 -195 -37
-42 -68 -75 -70 -73 -10 9 61 157 101 212 60 83 235 274 250 274 7 0 33 -16
58 -35 117 -89 218 -306 218 -470 0 -118 -51 -288 -149 -505 -71 -156 -116
-224 -211 -321 -121 -123 -260 -204 -690 -402 -352 -162 -516 -212 -775 -238
-145 -14 -292 -8 -562 26 -294 36 -496 48 -688 42 -276 -10 -413 -36 -705
-132 -318 -105 -528 -141 -672 -116 -96 16 -302 89 -458 160 -179 82 -580 293
-606 320 -13 12 -41 85 -72 188 -171 557 -260 1032 -292 1553 -5 85 -13 190
-16 233 -6 62 -4 77 7 77 8 0 60 -71 115 -158z m2778 127 c9 -47 7 -202 -3
-218 -7 -10 -12 8 -17 58 -7 75 -27 94 -32 30 -1 -19 -7 -64 -13 -101 -9 -56
-14 -68 -30 -68 -19 0 -159 128 -159 145 0 6 32 28 72 50 39 22 91 61 117 86
25 25 49 46 52 47 4 1 9 -12 13 -29z m-818 -147 c12 -53 25 -107 29 -119 11
-35 -10 -28 -42 13 -21 29 -28 50 -31 100 -4 66 4 122 16 109 4 -4 17 -50 28
-103z m-804 33 c11 -28 25 -57 33 -65 30 -35 26 -55 -39 -191 -35 -74 -74
-156 -87 -184 -21 -45 -23 -47 -26 -24 -3 22 55 418 73 497 7 35 24 22 46 -33z
m303 -398 c9 -98 26 -237 39 -308 12 -71 19 -129 15 -129 -13 0 -59 165 -74
265 -17 112 -21 375 -6 360 6 -6 17 -90 26 -188z m3993 181 c-4 -17 -218 -224
-218 -212 0 15 96 153 133 192 31 33 92 47 85 20z m-3909 -204 c11 -77 36
-216 56 -308 20 -93 34 -170 31 -173 -12 -13 -28 14 -51 90 -67 217 -112 588
-65 541 5 -5 18 -72 29 -150z m-179 89 c0 -31 7 -112 16 -178 8 -67 14 -146
12 -175 -3 -53 -4 -51 -25 60 -21 110 -28 200 -25 303 3 67 22 59 22 -10z
m282 -48 c125 -94 281 -165 451 -206 53 -12 97 -26 97 -30 0 -13 -92 -67 -236
-138 -77 -38 -167 -85 -199 -105 -39 -23 -63 -32 -70 -26 -22 18 -65 186 -90
349 -26 171 -29 201 -19 201 3 0 33 -20 66 -45z m-2150 -712 c26 -28 58 -84
58 -102 0 -6 -12 -6 -32 0 -45 12 -105 11 -114 -2 -9 -14 14 -29 46 -29 38 0
119 -52 173 -108 66 -71 64 -86 -8 -56 -44 18 -194 46 -206 38 -19 -11 -7 -24
33 -35 52 -13 238 -103 274 -131 27 -22 84 -95 84 -109 0 -4 -28 5 -62 21 -75
33 -207 75 -215 67 -10 -11 6 -37 23 -37 28 0 177 -75 234 -118 50 -38 136
-139 126 -149 -2 -2 -30 9 -62 25 -86 43 -181 75 -200 68 -22 -8 -3 -32 34
-41 39 -10 204 -128 284 -203 63 -60 110 -122 91 -122 -5 0 -37 23 -73 51 -68
53 -247 147 -290 151 -45 5 -26 -20 45 -57 104 -55 184 -116 263 -199 64 -68
101 -116 88 -116 -3 0 -36 19 -73 43 -108 69 -262 147 -268 137 -10 -16 0 -24
71 -66 107 -63 247 -185 304 -266 55 -77 95 -148 84 -148 -3 0 -34 25 -67 56
-84 78 -196 149 -211 134 -8 -8 -7 -14 6 -23 102 -70 140 -103 195 -167 65
-75 155 -206 188 -270 15 -30 7 -25 -56 36 -104 101 -231 196 -244 183 -7 -7
4 -22 35 -47 115 -92 286 -299 359 -434 35 -63 35 -63 -115 90 -138 141 -174
170 -174 140 0 -6 44 -57 98 -112 150 -154 295 -367 399 -586 65 -135 76 -163
64 -156 -4 3 -81 106 -169 229 -183 254 -209 284 -224 269 -7 -7 0 -23 25 -54
113 -140 491 -757 474 -774 -2 -3 -70 76 -150 173 -80 98 -163 195 -185 216
-54 52 -66 30 -15 -26 21 -23 59 -71 84 -107 166 -238 274 -392 355 -505 92
-130 241 -365 322 -509 40 -72 64 -97 79 -82 4 3 -5 32 -20 64 -15 31 -54 122
-88 202 -33 80 -94 205 -135 278 -41 74 -73 139 -71 145 2 6 35 -31 74 -83 85
-116 255 -319 316 -379 66 -63 79 -42 16 27 -95 107 -483 702 -467 717 3 3 50
-55 105 -128 195 -259 394 -480 414 -460 7 7 -18 50 -83 139 -138 189 -222
317 -340 519 -117 200 -181 322 -176 336 2 6 30 -32 63 -83 309 -486 407 -622
602 -838 9 -10 16 -11 24 -3 7 7 -18 47 -89 139 -55 71 -124 170 -155 219 -50
83 -288 500 -345 605 -24 45 -24 45 2 15 15 -16 67 -94 117 -173 181 -286 501
-693 525 -669 9 9 9 9 -53 88 -23 30 -85 137 -139 239 -53 102 -126 240 -161
308 -101 192 -81 175 105 -88 143 -201 192 -257 192 -218 0 7 -11 28 -24 47
-32 49 -246 419 -246 427 0 13 37 -25 175 -185 178 -206 231 -259 246 -244 7
7 2 20 -19 44 -16 19 -58 77 -93 128 -35 52 -76 113 -92 135 -48 70 -19 52 81
-50 104 -105 309 -277 326 -271 24 8 14 27 -31 60 -55 41 -269 254 -262 261 2
2 40 -23 84 -56 116 -88 321 -215 463 -287 23 -12 42 -25 42 -29 0 -4 -29 -22
-64 -40 -36 -19 -85 -55 -110 -82 -40 -43 -46 -55 -46 -94 0 -40 4 -48 41 -80
47 -40 206 -105 348 -142 102 -26 274 -49 446 -59 61 -4 230 -17 377 -31 410
-37 597 -31 833 27 116 29 195 56 320 109 281 121 374 176 665 395 202 152
489 360 635 460 302 207 547 433 813 750 83 99 176 209 207 244 42 47 53 67
45 75 -13 12 -49 -25 -263 -268 -173 -198 -195 -222 -201 -216 -2 3 70 104
160 225 192 256 266 365 359 530 37 66 83 144 101 173 19 29 34 57 34 62 0 22
-27 8 -45 -22 -23 -40 -165 -238 -170 -238 -2 0 22 42 52 93 31 50 94 170 141
266 75 151 87 171 98 156 36 -49 30 -237 -11 -365 -42 -130 -97 -265 -200
-485 -51 -110 -104 -231 -118 -270 -78 -219 -168 -404 -303 -628 -212 -349
-415 -566 -794 -848 -234 -174 -366 -254 -678 -407 -509 -251 -847 -344 -1387
-382 -82 -6 -202 -17 -265 -25 -182 -22 -617 -61 -955 -85 -199 -15 -404 -44
-605 -86 -471 -99 -551 -104 -631 -37 -41 35 -62 80 -94 203 -34 131 -89 259
-145 342 -116 170 -275 336 -448 467 -184 140 -291 240 -470 438 -288 318
-457 554 -592 823 -20 41 -81 184 -134 317 -53 132 -130 319 -172 415 -172
392 -168 383 -166 478 4 201 88 390 249 561 85 89 181 153 296 195 115 41 145
43 179 7z m956 -1179 c27 -40 103 -180 170 -311 175 -342 247 -431 470 -580
45 -30 82 -59 82 -64 0 -12 -96 24 -195 72 -186 91 -272 186 -390 434 -98 203
-242 534 -250 571 -6 29 -6 29 29 -10 20 -21 57 -72 84 -112z m4232 45 c-57
-52 -219 -165 -305 -214 -27 -15 -135 -78 -240 -140 -104 -62 -235 -136 -290
-165 -55 -28 -101 -56 -103 -60 -11 -29 45 -8 251 93 291 144 459 243 610 358
144 110 162 118 116 54 -59 -83 -205 -210 -489 -424 -409 -309 -601 -432 -880
-566 -69 -33 -194 -94 -279 -137 -85 -43 -156 -76 -158 -74 -6 6 213 172 309
234 101 65 121 83 109 95 -10 10 -113 -51 -326 -193 -121 -81 -422 -249 -472
-265 -13 -3 -23 -3 -23 2 0 4 43 28 94 52 115 52 247 139 341 222 82 73 92 87
70 95 -11 5 -31 -7 -58 -33 -82 -79 -252 -189 -450 -291 -91 -47 -93 -47 -187
-46 -150 1 -307 47 -525 155 -201 99 -362 225 -549 429 -84 91 -186 218 -186
231 0 24 33 -1 173 -132 156 -146 323 -285 462 -381 98 -68 243 -158 256 -158
24 0 4 28 -39 54 -188 117 -464 330 -611 471 -98 94 -326 353 -319 361 7 6 81
-49 173 -129 285 -247 361 -312 450 -381 55 -43 143 -107 196 -142 100 -66
297 -174 317 -174 28 0 8 28 -35 49 -166 80 -447 278 -649 458 -262 233 -514
465 -514 474 0 5 17 2 38 -7 85 -37 262 -93 335 -104 171 -28 409 16 727 133
146 54 139 52 115 32 -11 -9 -58 -37 -105 -62 -102 -55 -96 -51 -83 -64 8 -8
23 -4 53 11 23 12 113 48 200 80 244 91 262 91 116 0 -48 -29 -86 -56 -86 -60
0 -21 23 -13 129 40 64 32 151 70 192 84 84 28 229 57 229 46 0 -4 -57 -24
-127 -44 -139 -41 -214 -74 -221 -95 -4 -11 0 -12 14 -6 49 21 243 84 274 89
40 7 46 11 -155 -87 -113 -54 -124 -62 -108 -78 7 -7 20 -4 44 10 52 31 230
97 321 120 99 25 289 54 320 48 28 -4 41 2 -182 -81 -124 -46 -176 -69 -179
-82 -2 -12 2 -15 15 -11 174 54 375 110 438 121 107 19 236 30 236 19 0 -4
-93 -39 -206 -78 -220 -74 -246 -86 -228 -105 9 -9 19 -8 42 4 25 13 156 54
432 137 69 20 110 24 110 10 0 -4 -75 -34 -167 -66 -173 -59 -200 -72 -185
-87 5 -5 52 7 107 27 251 91 485 147 485 117 0 -5 -74 -38 -165 -73 -90 -35
-165 -70 -165 -76 0 -21 21 -16 208 56 204 78 527 184 545 178 12 -4 -250
-162 -427 -258 -92 -50 -127 -79 -94 -79 34 1 331 152 608 309 168 96 314 180
325 187 45 32 36 10 -15 -37z m-2717 -1601 c23 -11 98 -42 167 -69 69 -26 125
-53 125 -59 0 -6 -12 -19 -28 -28 -21 -13 -31 -14 -45 -5 -9 6 -62 39 -117 72
-141 84 -209 144 -102 89z"/>
<path d="M6572 7277 c-26 -27 -29 -65 -6 -74 22 -8 54 27 57 62 3 38 -22 44
-51 12z"/>
<path d="M6667 7210 c-27 -31 -43 -82 -32 -100 12 -19 53 -10 74 16 23 29 28
83 9 102 -17 17 -23 15 -51 -18z"/>
<path d="M1575 4420 c-20 -38 -19 -53 3 -73 39 -36 92 -7 92 49 0 37 -16 54
-52 54 -20 0 -31 -8 -43 -30z"/>
<path d="M5070 2993 c-102 -80 -339 -205 -454 -238 -70 -21 -75 -40 -7 -32 75
9 220 68 316 128 128 80 215 147 215 164 0 23 -21 17 -70 -22z"/>
</g>
</svg>
